<svg width="52" height="52" viewBox="0 0 52 52" fill="none" xmlns="http://www.w3.org/2000/svg">
<circle cx="26" cy="26" r="26" fill="#0084CA"/>
<path d="M9.888 29.45V23.15H11.386V29.45H9.888ZM7.41 27V25.6H13.864V27H7.41Z" fill="white"/>
<path d="M23.3992 37.7001C24.4762 37.7001 25.3492 36.7891 25.3492 35.6653C25.3492 34.5415 24.4762 33.6305 23.3992 33.6305C22.3223 33.6305 21.4492 34.5415 21.4492 35.6653C21.4492 36.7891 22.3223 37.7001 23.3992 37.7001Z" fill="white"/>
<path d="M34.1258 37.7002C35.2027 37.7002 36.0758 36.7892 36.0758 35.6654C36.0758 34.5416 35.2027 33.6306 34.1258 33.6306C33.0488 33.6306 32.1758 34.5416 32.1758 35.6654C32.1758 36.7892 33.0488 37.7002 34.1258 37.7002Z" fill="white"/>
<path d="M38.8161 16.4843C38.745 16.3946 38.6553 16.3222 38.5536 16.2722C38.4518 16.2222 38.3405 16.1959 38.2276 16.1951H22.3166L22.8133 17.7585H37.2265L35.186 27.1387H23.7227L20.2302 15.8277C20.1925 15.7077 20.1269 15.5988 20.039 15.5103C19.9512 15.4218 19.8438 15.3564 19.7259 15.3196L16.5926 14.3347C16.4962 14.3044 16.395 14.2938 16.2946 14.3036C16.1943 14.3133 16.0968 14.3431 16.0078 14.3914C15.8279 14.4889 15.6933 14.6555 15.6335 14.8545C15.5737 15.0535 15.5936 15.2687 15.6889 15.4527C15.7842 15.6366 15.9471 15.7744 16.1417 15.8355L18.8852 16.6954L22.393 28.0298L21.1397 29.0773L21.0403 29.1789C20.7303 29.5443 20.5546 30.0089 20.5434 30.4926C20.5323 30.9763 20.6864 31.4488 20.9792 31.8288C21.1875 32.0879 21.4522 32.2935 21.7521 32.4293C22.052 32.565 22.3788 32.627 22.7063 32.6105H35.4611C35.6638 32.6105 35.8582 32.5281 36.0015 32.3815C36.1448 32.2349 36.2254 32.0361 36.2254 31.8288C36.2254 31.6215 36.1448 31.4226 36.0015 31.276C35.8582 31.1295 35.6638 31.0471 35.4611 31.0471H22.584C22.496 31.044 22.4103 31.0178 22.3351 30.9709C22.2599 30.9241 22.1978 30.8582 22.1548 30.7796C22.1118 30.701 22.0893 30.6124 22.0895 30.5223C22.0897 30.4323 22.1127 30.3438 22.1561 30.2654L23.9978 28.702H35.7974C35.9741 28.7065 36.1468 28.6481 36.2861 28.537C36.4254 28.4258 36.5228 28.2687 36.5616 28.0923L38.9842 17.1487C39.0074 17.0322 39.0044 16.9118 38.9752 16.7966C38.9461 16.6815 38.8917 16.5747 38.8161 16.4843Z" fill="white"/>
</svg>
