<svg width="36" height="36" viewBox="0 0 36 36" fill="none" xmlns="http://www.w3.org/2000/svg">
<path d="M11.8322 28.8855C10.4644 28.8234 9.72134 28.5961 9.22712 28.4036C8.57226 28.149 8.10539 27.8459 7.6139 27.3558C7.12242 26.8657 6.81823 26.3995 6.56463 25.7456C6.37186 25.2521 6.14423 24.5102 6.08203 23.1443C6.01367 21.6679 6 21.2249 6 17.4844C6 13.7439 6.01504 13.3015 6.08134 11.8238C6.14355 10.4579 6.37254 9.71732 6.56394 9.22245C6.81891 8.56854 7.1231 8.10234 7.61322 7.61089C8.10402 7.12079 8.5709 6.81636 9.22644 6.56313C9.72066 6.37064 10.4637 6.14334 11.8315 6.08123C13.3108 6.01365 13.7551 6 17.4997 6C21.2456 6 21.6886 6.01502 23.1685 6.08123C24.5363 6.14334 25.278 6.37201 25.7736 6.56313C26.4284 6.81636 26.8953 7.12079 27.3868 7.61089C27.8783 8.10098 28.1811 8.56786 28.4361 9.22177C28.6288 9.71527 28.8565 10.4572 28.9187 11.8231C28.9863 13.3009 29 13.7432 29 17.4837C29 21.2229 28.9863 21.6665 28.9187 23.1443C28.8565 24.5102 28.6275 25.2521 28.4361 25.7456C28.1811 26.3995 27.8776 26.8657 27.3868 27.3558C26.896 27.8459 26.4284 28.149 25.7736 28.4036C25.2793 28.5961 24.5363 28.8234 23.1685 28.8855C21.6899 28.9531 21.2456 28.9667 17.4997 28.9667C13.7551 28.9667 13.3108 28.9537 11.8322 28.8855Z" fill="white"/>
<g clip-path="url(#clip0_17_837)">
<path d="M18.0294 29V20.0064H15.583V16.7683H18.0294V14.0025C18.0294 11.8292 19.4745 9.83331 22.8043 9.83331C24.1525 9.83331 25.1494 9.95895 25.1494 9.95895L25.0709 12.9828C25.0709 12.9828 24.0542 12.9732 22.9447 12.9732C21.7439 12.9732 21.5515 13.5111 21.5515 14.4039V16.7683H25.1663L25.0091 20.0064H21.5515V29H18.0294Z" fill="#2A3B45"/>
</g>
<defs>
<clipPath id="clip0_17_837">
<rect width="9.58333" height="19.1667" fill="white" transform="translate(15.583 9.83331)"/>
</clipPath>
</defs>
</svg>
