<svg width="36" height="36" viewBox="0 0 36 36" fill="none" xmlns="http://www.w3.org/2000/svg">
<g clip-path="url(#clip0_17_836)">
<path d="M12.0858 29.9151C10.6585 29.8502 9.88314 29.6127 9.36743 29.4115C8.6841 29.1455 8.19693 28.8288 7.68407 28.3166C7.17122 27.8045 6.85381 27.3173 6.58918 26.634C6.38803 26.1183 6.1505 25.3429 6.08559 23.9157C6.01427 22.3728 6 21.9099 6 18.0011C6 14.0923 6.01569 13.63 6.08488 12.0858C6.14979 10.6585 6.38874 9.88457 6.58846 9.36743C6.85452 8.6841 7.17193 8.19693 7.68336 7.68336C8.1955 7.17122 8.68268 6.85309 9.36672 6.58846C9.88243 6.38732 10.6578 6.14979 12.0851 6.08488C13.6286 6.01427 14.0923 6 17.9996 6C21.9085 6 22.3707 6.01569 23.9149 6.08488C25.3422 6.14979 26.1161 6.38874 26.6333 6.58846C27.3166 6.85309 27.8038 7.17122 28.3166 7.68336C28.8295 8.1955 29.1455 8.68339 29.4115 9.36672C29.6127 9.88243 29.8502 10.6578 29.9151 12.0851C29.9857 13.6293 30 14.0915 30 18.0004C30 21.9077 29.9857 22.3714 29.9151 23.9157C29.8502 25.3429 29.6113 26.1183 29.4115 26.634C29.1455 27.3173 28.8288 27.8045 28.3166 28.3166C27.8045 28.8288 27.3166 29.1455 26.6333 29.4115C26.1176 29.6127 25.3422 29.8502 23.9149 29.9151C22.3721 29.9857 21.9085 30 17.9996 30C14.0923 30 13.6286 29.9864 12.0858 29.9151Z" fill="white"/>
<path d="M13.4566 18.0174C13.4566 15.5042 15.4905 13.4664 18 13.4664C20.5095 13.4664 22.5444 15.5042 22.5444 18.0174C22.5444 20.5306 20.5095 22.5684 18 22.5684C15.4905 22.5684 13.4566 20.5306 13.4566 18.0174ZM11 18.0174C11 21.8891 14.1339 25.0276 18 25.0276C21.8661 25.0276 25 21.8891 25 18.0174C25 14.1457 21.8661 11.0073 18 11.0073C14.1339 11.0073 11 14.1455 11 18.0174Z" fill="#2A3B45"/>
<path d="M24.2525 11.3406C24.0877 11.0935 23.9999 10.803 24 10.5059C24.0003 10.1077 24.1585 9.72584 24.4398 9.4443C24.721 9.16276 25.1029 9.00452 25.5006 9.00433C25.7973 9.00445 26.0872 9.09267 26.3339 9.25783C26.5805 9.42299 26.7726 9.65767 26.886 9.93221C26.9995 10.2067 27.0291 10.5088 26.9711 10.8002C26.9131 11.0915 26.7701 11.3591 26.5602 11.5691C26.3504 11.7791 26.083 11.9221 25.792 11.9799C25.5011 12.0378 25.1995 12.0079 24.9254 11.8941C24.6514 11.7803 24.4172 11.5877 24.2525 11.3406Z" fill="#2A3B45"/>
</g>
<defs>
<clipPath id="clip0_17_836">
<rect width="24" height="24" fill="white" transform="translate(6 6)"/>
</clipPath>
</defs>
</svg>
