<svg width="105" height="18" viewBox="0 0 105 18" fill="none" xmlns="http://www.w3.org/2000/svg">
<path d="M1.764 14V4.2H9.828V14H9.114V4.62L9.324 4.844H2.268L2.478 4.62V14H1.764ZM16.0178 14.056C15.3178 14.056 14.6924 13.8973 14.1418 13.58C13.6004 13.2627 13.1664 12.824 12.8398 12.264C12.5224 11.704 12.3638 11.0647 12.3638 10.346C12.3638 9.618 12.5224 8.97867 12.8398 8.428C13.1664 7.868 13.6004 7.42933 14.1418 7.112C14.6924 6.79467 15.3178 6.636 16.0178 6.636C16.7178 6.636 17.3431 6.79467 17.8938 7.112C18.4444 7.42933 18.8784 7.868 19.1958 8.428C19.5131 8.97867 19.6718 9.618 19.6718 10.346C19.6718 11.0647 19.5131 11.704 19.1958 12.264C18.8784 12.824 18.4444 13.2627 17.8938 13.58C17.3431 13.8973 16.7178 14.056 16.0178 14.056ZM16.0178 13.426C16.5778 13.426 17.0818 13.3 17.5298 13.048C17.9778 12.7867 18.3278 12.4227 18.5798 11.956C18.8318 11.4893 18.9578 10.9527 18.9578 10.346C18.9578 9.73 18.8318 9.19333 18.5798 8.736C18.3278 8.26933 17.9778 7.91 17.5298 7.658C17.0818 7.39667 16.5778 7.266 16.0178 7.266C15.4578 7.266 14.9538 7.39667 14.5058 7.658C14.0671 7.91 13.7171 8.26933 13.4558 8.736C13.2038 9.19333 13.0778 9.73 13.0778 10.346C13.0778 10.9527 13.2038 11.4893 13.4558 11.956C13.7171 12.4227 14.0671 12.7867 14.5058 13.048C14.9538 13.3 15.4578 13.426 16.0178 13.426ZM26.9221 13.664V7.322H23.1141L23.0301 9.142C23.0114 9.65533 22.9788 10.1687 22.9321 10.682C22.8854 11.186 22.8108 11.6527 22.7081 12.082C22.6054 12.502 22.4608 12.8427 22.2741 13.104C22.0968 13.3653 21.8634 13.51 21.5741 13.538L20.8741 13.384C21.1728 13.4027 21.4154 13.2953 21.6021 13.062C21.7888 12.8193 21.9334 12.4927 22.0361 12.082C22.1388 11.6713 22.2134 11.2093 22.2601 10.696C22.3161 10.1733 22.3581 9.64133 22.3861 9.1L22.4841 6.692H27.6221V13.664H26.9221ZM20.5521 15.82V13.384H28.7981V15.82H28.1401V14H21.2241V15.82H20.5521ZM34.5475 14.056C33.9035 14.056 33.3202 13.9067 32.7975 13.608C32.2842 13.3093 31.8735 12.8847 31.5655 12.334C31.2668 11.774 31.1175 11.1113 31.1175 10.346C31.1175 9.58067 31.2668 8.92267 31.5655 8.372C31.8735 7.812 32.2842 7.38267 32.7975 7.084C33.3202 6.78533 33.9035 6.636 34.5475 6.636C35.2382 6.636 35.8542 6.79467 36.3955 7.112C36.9462 7.42 37.3755 7.854 37.6835 8.414C38.0008 8.974 38.1595 9.618 38.1595 10.346C38.1595 11.074 38.0008 11.718 37.6835 12.278C37.3755 12.838 36.9462 13.2767 36.3955 13.594C35.8542 13.902 35.2382 14.056 34.5475 14.056ZM30.8795 16.716V6.692H31.5515V9.086L31.4395 10.36L31.5795 11.634V16.716H30.8795ZM34.5055 13.426C35.0655 13.426 35.5695 13.3 36.0175 13.048C36.4655 12.7867 36.8155 12.4227 37.0675 11.956C37.3288 11.4893 37.4595 10.9527 37.4595 10.346C37.4595 9.73 37.3288 9.19333 37.0675 8.736C36.8155 8.26933 36.4655 7.91 36.0175 7.658C35.5695 7.39667 35.0655 7.266 34.5055 7.266C33.9455 7.266 33.4415 7.39667 32.9935 7.658C32.5548 7.91 32.2048 8.26933 31.9435 8.736C31.6915 9.19333 31.5655 9.73 31.5655 10.346C31.5655 10.9527 31.6915 11.4893 31.9435 11.956C32.2048 12.4227 32.5548 12.7867 32.9935 13.048C33.4415 13.3 33.9455 13.426 34.5055 13.426ZM43.3478 14.056C42.6478 14.056 42.0225 13.8973 41.4718 13.58C40.9305 13.2627 40.4965 12.824 40.1698 12.264C39.8525 11.704 39.6938 11.0647 39.6938 10.346C39.6938 9.618 39.8525 8.97867 40.1698 8.428C40.4965 7.868 40.9305 7.42933 41.4718 7.112C42.0225 6.79467 42.6478 6.636 43.3478 6.636C44.0478 6.636 44.6732 6.79467 45.2238 7.112C45.7745 7.42933 46.2085 7.868 46.5258 8.428C46.8432 8.97867 47.0018 9.618 47.0018 10.346C47.0018 11.0647 46.8432 11.704 46.5258 12.264C46.2085 12.824 45.7745 13.2627 45.2238 13.58C44.6732 13.8973 44.0478 14.056 43.3478 14.056ZM43.3478 13.426C43.9078 13.426 44.4118 13.3 44.8598 13.048C45.3078 12.7867 45.6578 12.4227 45.9098 11.956C46.1618 11.4893 46.2878 10.9527 46.2878 10.346C46.2878 9.73 46.1618 9.19333 45.9098 8.736C45.6578 8.26933 45.3078 7.91 44.8598 7.658C44.4118 7.39667 43.9078 7.266 43.3478 7.266C42.7878 7.266 42.2838 7.39667 41.8358 7.658C41.3972 7.91 41.0472 8.26933 40.7858 8.736C40.5338 9.19333 40.4078 9.73 40.4078 10.346C40.4078 10.9527 40.5338 11.4893 40.7858 11.956C41.0472 12.4227 41.3972 12.7867 41.8358 13.048C42.2838 13.3 42.7878 13.426 43.3478 13.426ZM52.4735 14.07C51.8855 14.07 51.3629 13.9673 50.9055 13.762C50.4575 13.5567 50.0749 13.2533 49.7575 12.852C49.4495 12.4507 49.2115 11.956 49.0435 11.368C48.8755 10.7707 48.7915 10.0847 48.7915 9.31C48.7915 8.554 48.8662 7.90533 49.0155 7.364C49.1649 6.81333 49.3609 6.35133 49.6035 5.978C49.8555 5.59533 50.1402 5.28267 50.4575 5.04C50.7749 4.79733 51.1015 4.606 51.4375 4.466C51.7829 4.31667 52.1235 4.20467 52.4595 4.13L55.6935 3.36L55.8055 4.018L52.7255 4.732C52.5109 4.788 52.2589 4.86267 51.9695 4.956C51.6895 5.04 51.4002 5.17533 51.1015 5.362C50.8122 5.53933 50.5415 5.79133 50.2895 6.118C50.0469 6.43533 49.8462 6.846 49.6875 7.35C49.5382 7.854 49.4635 8.47933 49.4635 9.226C49.4635 9.366 49.4682 9.478 49.4775 9.562C49.4869 9.646 49.4962 9.73933 49.5055 9.842C49.5242 9.93533 49.5429 10.0753 49.5615 10.262L49.2395 10.094C49.2955 9.478 49.4775 8.93667 49.7855 8.47C50.0935 8.00333 50.4949 7.63933 50.9895 7.378C51.4842 7.11667 52.0442 6.986 52.6695 6.986C53.3509 6.986 53.9529 7.13533 54.4755 7.434C55.0075 7.72333 55.4229 8.134 55.7215 8.666C56.0202 9.18867 56.1695 9.79533 56.1695 10.486C56.1695 11.1767 56.0155 11.7927 55.7075 12.334C55.4089 12.8753 54.9795 13.3 54.4195 13.608C53.8689 13.916 53.2202 14.07 52.4735 14.07ZM52.5855 13.468C53.1455 13.468 53.6402 13.342 54.0695 13.09C54.5082 12.8287 54.8489 12.474 55.0915 12.026C55.3342 11.578 55.4555 11.0693 55.4555 10.5C55.4555 9.93067 55.3342 9.43133 55.0915 9.002C54.8489 8.57267 54.5082 8.23667 54.0695 7.994C53.6402 7.742 53.1409 7.616 52.5715 7.616C52.0115 7.616 51.5122 7.73733 51.0735 7.98C50.6442 8.22267 50.3082 8.55867 50.0655 8.988C49.8229 9.41733 49.7015 9.91667 49.7015 10.486C49.7015 11.0553 49.8229 11.564 50.0655 12.012C50.3175 12.46 50.6582 12.8147 51.0875 13.076C51.5262 13.3373 52.0255 13.468 52.5855 13.468ZM58.469 14V6.692H59.169V10.024H64.125V6.692H64.825V14H64.125V10.64H59.169V14H58.469ZM70.8719 14.056C70.1346 14.056 69.4813 13.8973 68.9119 13.58C68.3519 13.2627 67.9086 12.824 67.5819 12.264C67.2646 11.704 67.1059 11.0647 67.1059 10.346C67.1059 9.618 67.2553 8.97867 67.5539 8.428C67.8619 7.868 68.2819 7.42933 68.8139 7.112C69.3459 6.79467 69.9433 6.636 70.6059 6.636C71.2686 6.636 71.8613 6.79 72.3839 7.098C72.9159 7.406 73.3313 7.84 73.6299 8.4C73.9379 8.95067 74.0919 9.59 74.0919 10.318C74.0919 10.346 74.0873 10.3787 74.0779 10.416C74.0779 10.444 74.0779 10.4767 74.0779 10.514H67.6239V9.968H73.6999L73.4199 10.234C73.4293 9.66467 73.3079 9.156 73.0559 8.708C72.8133 8.25067 72.4819 7.896 72.0619 7.644C71.6419 7.38267 71.1566 7.252 70.6059 7.252C70.0646 7.252 69.5793 7.38267 69.1499 7.644C68.7299 7.896 68.3986 8.25067 68.1559 8.708C67.9133 9.156 67.7919 9.66933 67.7919 10.248V10.374C67.7919 10.9713 67.9226 11.5033 68.1839 11.97C68.4546 12.4273 68.8233 12.7867 69.2899 13.048C69.7566 13.3 70.2886 13.426 70.8859 13.426C71.3526 13.426 71.7866 13.342 72.1879 13.174C72.5986 13.006 72.9439 12.7493 73.2239 12.404L73.6299 12.866C73.3126 13.258 72.9113 13.5567 72.4259 13.762C71.9499 13.958 71.4319 14.056 70.8719 14.056ZM79.4032 14.056C78.6659 14.056 78.0125 13.8973 77.4432 13.58C76.8832 13.2627 76.4399 12.824 76.1132 12.264C75.7959 11.704 75.6372 11.0647 75.6372 10.346C75.6372 9.618 75.7865 8.97867 76.0852 8.428C76.3932 7.868 76.8132 7.42933 77.3452 7.112C77.8772 6.79467 78.4745 6.636 79.1372 6.636C79.7999 6.636 80.3925 6.79 80.9152 7.098C81.4472 7.406 81.8625 7.84 82.1612 8.4C82.4692 8.95067 82.6232 9.59 82.6232 10.318C82.6232 10.346 82.6185 10.3787 82.6092 10.416C82.6092 10.444 82.6092 10.4767 82.6092 10.514H76.1552V9.968H82.2312L81.9512 10.234C81.9605 9.66467 81.8392 9.156 81.5872 8.708C81.3445 8.25067 81.0132 7.896 80.5932 7.644C80.1732 7.38267 79.6879 7.252 79.1372 7.252C78.5959 7.252 78.1105 7.38267 77.6812 7.644C77.2612 7.896 76.9299 8.25067 76.6872 8.708C76.4445 9.156 76.3232 9.66933 76.3232 10.248V10.374C76.3232 10.9713 76.4539 11.5033 76.7152 11.97C76.9859 12.4273 77.3545 12.7867 77.8212 13.048C78.2879 13.3 78.8199 13.426 79.4172 13.426C79.8839 13.426 80.3179 13.342 80.7192 13.174C81.1299 13.006 81.4752 12.7493 81.7552 12.404L82.1612 12.866C81.8439 13.258 81.4425 13.5567 80.9572 13.762C80.4812 13.958 79.9632 14.056 79.4032 14.056Z" fill="#2A3B45"/>
<path d="M98 3L104 9L98 15" stroke="#2A3B45"/>
<line x1="104" y1="9" x2="92" y2="9" stroke="#2A3B45"/>
</svg>
