<svg width="36" height="36" viewBox="0 0 36 36" fill="none" xmlns="http://www.w3.org/2000/svg">
<path d="M8.66412 11.6053L7.33203 14.2368V16.8684V18.8421V20.8158L7.99807 23.4474L9.33016 25.4211L11.9943 26.7368V30.0263C11.9943 31.6053 13.3264 31.3421 13.9925 30.6842L16.6566 27.3947H18.6547H20.6529H23.317C23.8499 27.3947 24.8711 26.9561 25.3152 26.7368L26.6473 25.4211L27.9793 24.7632L29.3114 22.7895V20.8158V18.8421V16.2105L28.6454 14.8947V12.9211L27.3133 10.9474L26.6473 9.63158L24.6491 8.31579L22.651 7.6579H19.3208H15.3245L11.9943 8.31579L9.9962 9.63158L8.66412 11.6053Z" fill="white"/>
<path d="M27.2935 9.43438C26.6658 8.86316 24.1253 7.0421 18.461 7.01769C18.461 7.01769 11.7834 6.62223 8.53116 9.57108C6.72214 11.358 6.08454 13.9797 6.01534 17.2264C5.94614 20.473 5.86212 26.5562 11.7983 28.2064H11.8032L11.7983 30.7256C11.7983 30.7256 11.7587 31.746 12.4408 31.9511C13.2613 32.205 13.7457 31.4287 14.5315 30.5938C14.9616 30.1349 15.5547 29.4612 16.0045 28.9485C20.0673 29.2854 23.1861 28.514 23.542 28.4017C24.3625 28.1381 29.0037 27.5522 29.7549 21.469C30.5359 15.1905 29.3793 11.2261 27.2935 9.43438ZM27.9805 21.0101C27.3429 26.0876 23.5816 26.4098 22.8896 26.6295C22.593 26.7222 19.8499 27.396 16.4048 27.1763C16.4048 27.1763 13.8346 30.2374 13.0339 31.0332C12.772 31.292 12.4853 31.2676 12.4902 30.7549C12.4902 30.4181 12.51 26.5709 12.51 26.5709C12.5051 26.5709 12.5051 26.5709 12.51 26.5709C7.47837 25.1941 7.77493 20.0141 7.8293 17.3045C7.88367 14.5949 8.40265 12.3735 9.93487 10.8795C12.6879 8.414 18.3572 8.78016 18.3572 8.78016C23.1466 8.79969 25.44 10.2253 25.9738 10.7037C27.7383 12.1977 28.6379 15.7715 27.9805 21.0101Z" fill="white"/>
<path d="M20.4724 17.0938C20.4922 17.5136 21.1298 17.4844 21.11 17.0645C21.0408 15.6633 20.2747 14.8821 18.8957 14.8089C18.4756 14.7845 18.4361 15.4143 18.8611 15.4387C19.909 15.4973 20.4181 16.0197 20.4724 17.0938Z" fill="#2A3B45"/>
<path d="M18.3669 13.7446C20.853 13.9252 22.1628 15.5461 22.1134 17.6162C22.1035 18.0312 22.7461 18.0507 22.751 17.6308C22.8054 15.2678 21.2781 13.3198 18.4113 13.1148C17.9912 13.0855 17.9467 13.7153 18.3669 13.7446Z" fill="#2A3B45"/>
<path d="M23.7988 18.2753C23.7988 18.6951 24.4414 18.6903 24.4364 18.2704C24.4018 13.9838 21.4708 11.4988 17.8281 11.4744C17.408 11.4744 17.408 12.0993 17.8281 12.1042C21.0853 12.1286 23.7692 14.2963 23.7988 18.2753Z" fill="#2A3B45"/>
<path d="M23.8779 23.0696V23.0598C24.1152 22.6107 24.0361 22.1859 23.6901 21.9076C23.0772 21.3364 22.1529 20.7066 21.4264 20.3014C20.8876 20.0036 20.339 20.1891 20.1116 20.482L19.6371 21.0679C19.3949 21.3657 18.9452 21.3266 18.9452 21.3266C15.6583 20.4967 14.7785 17.2109 14.7785 17.2109C14.7785 17.2109 14.7389 16.7667 15.0404 16.5274L15.6336 16.0588C15.9301 15.8342 16.1179 15.2922 15.8164 14.7601C15.6435 14.4623 15.3123 13.9301 15.0652 13.5981C14.8032 13.2417 14.1903 12.5192 14.1903 12.5192C13.8987 12.1725 13.4637 12.0944 13.009 12.3288H12.9991C12.0551 12.856 11.0221 13.8422 11.3532 14.8577C11.3532 14.8577 11.5855 15.6975 12.6383 17.5771C13.1375 18.4754 13.6516 19.2224 14.1607 19.8522C14.7241 20.5601 15.4556 21.2973 16.2563 21.9223C17.8083 23.1428 20.2648 24.3927 21.3077 24.6807L21.3176 24.6954C22.3457 25.0225 23.3441 23.9972 23.8779 23.0696Z" fill="#2A3B45"/>
</svg>
