<svg width="36" height="36" viewBox="0 0 36 36" fill="none" xmlns="http://www.w3.org/2000/svg">
<path d="M17.9975 6C11.3815 6 6 11.3826 6 17.9997C6 20.6238 6.84641 23.0578 8.28524 25.0333L6.78968 29.4921L11.4006 28.0178C13.2976 29.2735 15.562 30 18.0025 30C24.6185 30 30 24.6172 30 18.0003C30 11.3834 24.6183 6.0006 18.0025 6.0006H17.9955L17.9975 6Z" fill="white"/>
<path d="M14.5643 11.6512C14.3426 11.0611 14.1615 11.0397 13.8142 11.0159L13.4181 11C12.9673 11 12.4943 11.1429 12.209 11.455C11.8617 11.8362 11 12.724 11 14.5456C11 16.3673 12.2364 18.1286 12.4041 18.3756C12.5778 18.6138 14.8148 22.4144 18.2889 23.9597C21.0055 25.1691 21.811 25.0571 22.4296 24.915C23.3327 24.7061 24.4648 23.9891 24.7501 23.1235C25.0354 22.2579 25.0354 21.5194 24.9511 21.3606C24.8669 21.2018 24.6385 21.1224 24.2912 20.9278C23.9438 20.7333 22.2559 19.8455 21.9359 19.7255C21.6233 19.5985 21.3248 19.6438 21.0883 20.0019C20.7557 20.5022 20.4283 21.0104 20.1645 21.3153C19.9561 21.5536 19.6154 21.5853 19.3309 21.4583C18.9488 21.2867 17.8787 20.8833 16.5596 19.6215C15.5383 18.6448 14.8436 17.4266 14.6419 17.0613C14.4401 16.6881 14.6212 16.4713 14.7808 16.2696C14.9545 16.0378 15.1207 15.8742 15.2952 15.6582C15.4696 15.4422 15.5664 15.3294 15.6772 15.0761C15.7955 14.8379 15.712 14.5758 15.6284 14.3892C15.5449 14.2026 14.8503 12.3801 14.5657 11.6416L14.5643 11.6512Z" fill="#2A3B45"/>
</svg>
